<svg width="128" height="128" version="1.1" xmlns="http://www.w3.org/2000/svg" desc="Created with imagetracer.js version 0.2.1" ><path fill="rgb(103,227,139)" stroke="rgb(103,227,139)" stroke-width="1" opacity="0.5725490196078431" d="M 105.5 0 L 107 0.5 L 104.5 2 L 105.5 0 Z " /><path fill="rgb(103,227,139)" stroke="rgb(103,227,139)" stroke-width="1" opacity="0.5725490196078431" d="M 110.5 0 L 113 1.5 L 111.5 1 L 110.5 0 Z " /><path fill="rgb(103,227,139)" stroke="rgb(103,227,139)" stroke-width="1" opacity="0.5725490196078431" d="M 100.5 4 L 98.5 7 L 100.5 4 Z " /><path fill="rgb(103,227,139)" stroke="rgb(103,227,139)" stroke-width="1" opacity="0.5725490196078431" d="M 118.5 26 L 119 28.5 L 118 28.5 L 118.5 26 Z " /><path fill="rgb(103,227,139)" stroke="rgb(103,227,139)" stroke-width="1" opacity="0.5725490196078431" d="M 29.5 37 L 27.5 40 L 29.5 37 Z " /><path fill="rgb(16,210,22)" stroke="rgb(16,210,22)" stroke-width="1" opacity="0.00392156862745098" d="M 115.5 1 L 116.5 3 Q 113.7 3.7 115.5 1 Z " /><path fill="rgb(16,210,22)" stroke="rgb(16,210,22)" stroke-width="1" opacity="0.00392156862745098" d="M 21.5 42 L 21 43.5 L 20.5 45 L 20 43.5 L 21.5 42 Z " /><path fill="rgb(16,210,22)" stroke="rgb(16,210,22)" stroke-width="1" opacity="0.00392156862745098" d="M 53.5 64 L 52.5 66 L 53.5 64 Z " /><path fill="rgb(16,210,22)" stroke="rgb(16,210,22)" stroke-width="1" opacity="0.00392156862745098" d="M 16.5 90 L 13.5 94 L 16.5 90 Z " /><path fill="rgb(16,210,22)" stroke="rgb(16,210,22)" stroke-width="1" opacity="0.00392156862745098" d="M 20.5 98 L 19.5 100 L 20.5 98 Z " /><path fill="rgb(0,0,0)" stroke="rgb(0,0,0)" stroke-width="1" opacity="0" d="M 0 0 L 101.5 0 L 102.5 1 L 104 0.5 Q 96.1 9.6 83.5 14 L 48.5 24 Q 37.2 28.7 29.5 37 L 29.5 35 L 26 37.5 Q 28.8 39.3 24.5 41 L 23.5 40 L 20 43.5 L 20.5 45 L 23 43.5 L 18.5 48 Q 17.3 45.7 16 48.5 L 16.5 50 L 18 49.5 L 14 51.5 L 14.5 53 L 16 52.5 L 10.5 64 L 9.5 62 L 8 67.5 L 9 67.5 L 9.5 65 L 10 67.5 L 9 68.5 L 9 88.5 L 10 94 L 12.5 93 L 13.5 94 L 18 89.5 L 17 88.5 L 21.5 84 L 47.5 68 L 56.5 60 Q 57.8 62.3 59 59.5 Q 56.8 58.3 59.5 57 Q 65.8 55.8 67 59.5 L 65 59.5 L 65.5 65 L 67 64.5 L 54.5 76 L 28.5 92 L 18.5 102 Q 17.3 99.8 16 102.5 L 16.5 104 L 18 103.5 L 14 105.5 L 14.5 107 L 16 106.5 L 13 107.5 L 14 109.5 L 12 109.5 L 13 112.5 Q 9 116 10 124.5 L 10.5 126 L 9 125.5 Q 8.1 128.5 12.5 127 L 12.5 128 L 0.5 128 L 0 127.5 L 0 0 Z M 82 12 L 82 13 L 84 13 L 82 12 Z M 79 13 L 79 14 L 81 14 L 79 13 Z M 75 14 L 75 15 L 78 15 L 75 14 Z M 71 15 L 71 16 L 74 16 L 71 15 Z M 68 16 L 68 17 L 70 17 L 68 16 Z M 64 17 L 64 18 L 67 18 L 64 17 Z M 61 18 L 61 19 L 63 19 L 61 18 Z M 57 19 L 57 20 L 59 20 L 57 19 Z M 54 20 L 54 21 L 56 21 L 54 20 Z M 49 22 L 49 23 L 51 23 L 49 22 Z M 60 58 L 60 59 L 65 59 L 60 58 Z M 8 68 L 7 77 L 8 77 L 8 68 Z M 8 80 L 7 89 L 8 89 L 8 80 Z M 9 89 L 8 93 L 9 93 L 9 89 Z M 9 119 L 8 125 L 9 125 L 9 119 Z " /><path fill="rgb(0,0,0)" stroke="rgb(0,0,0)" stroke-width="1" opacity="0" d="M 113.5 0 L 115.5 0 L 127.5 0 L 128 0.5 L 128 128 L 22.5 128 L 21.5 127 L 20 127.5 Q 24.1 125.1 24.5 119 L 25.5 122 L 26 119 L 38 118.5 L 25 117.5 L 47.5 116 L 70.5 110 Q 88.9 102.9 100.5 89 Q 101.8 91.3 103 88.5 L 102.5 87 L 101 87.5 L 106 84.5 L 105.5 83 L 104 83.5 L 108 81.5 L 107.5 80 L 106 80.5 L 109 79.5 L 108 77.5 L 111 76.5 L 110.5 75 L 109 75.5 L 114 66.5 L 119 48.5 L 119 20.5 L 115 3.5 L 116 3.5 L 116.5 5 L 117 2.5 Q 115.8 -0.3 114.5 2 L 113.5 0 Z M 118 5 L 117 9 L 118 9 L 118 5 Z M 119 9 L 118 14 L 119 14 L 119 9 Z M 120 14 L 119 20 L 120 20 L 120 14 Z M 121 20 L 120 32 L 121 32 L 121 20 Z M 121 37 L 120 48 L 121 48 L 121 37 Z M 120 49 L 119 54 L 120 54 L 120 49 Z M 119 54 L 118 58 L 119 58 L 119 54 Z M 118 58 L 117 61 L 118 61 L 118 58 Z M 117 61 L 116 64 L 117 64 L 117 61 Z M 69 111 L 69 112 L 71 112 L 69 111 Z M 66 112 L 66 113 L 68 113 L 66 112 Z M 63 113 L 63 114 L 65 114 L 63 113 Z M 59 114 L 59 115 L 62 115 L 59 114 Z M 55 115 L 55 116 L 58 116 L 55 115 Z M 49 116 L 49 117 L 53 117 L 49 116 Z M 41 117 L 41 118 L 47 118 L 41 117 Z M 25 122 L 24 125 L 25 125 L 25 122 Z " /><path fill="rgb(0,0,0)" stroke="rgb(0,0,0)" stroke-width="1" opacity="0" d="M 15.5 89 L 13.5 92 L 15.5 89 Z " /><path fill="rgb(99,204,118)" stroke="rgb(99,204,118)" stroke-width="1" opacity="0.996078431372549" d="M 107.5 0 L 114 2 L 118 20.5 L 119 36.5 L 119 38.5 L 117.5 46 L 117 38.5 L 115.5 37 L 110.5 38 L 108.5 38 L 100.5 37 L 98.5 37 Q 93 35.5 91.5 38 L 88.5 36 L 85.5 38 L 83.5 38 L 79.5 36 L 78.5 38 L 74.5 37 L 72.5 38 L 67.5 36 L 63.5 37 L 61.5 37 L 54.5 38 L 50.5 36 L 44.5 38 L 37.5 36 L 33.5 38 Q 32 35.5 30.5 39 L 22 46.5 L 19.5 50 L 21 47.5 L 26 40 L 37.5 31 L 50.5 24 L 83.5 15 L 95.5 9 L 107.5 0 Z " /><path fill="rgb(99,204,118)" stroke="rgb(99,204,118)" stroke-width="1" opacity="0.996078431372549" d="M 116.5 48 L 117 51.5 L 116 51.5 L 116.5 48 Z " /><path fill="rgb(99,204,118)" stroke="rgb(99,204,118)" stroke-width="1" opacity="0.996078431372549" d="M 18.5 51 L 17.5 53 L 18.5 51 Z " /><path fill="rgb(99,204,118)" stroke="rgb(99,204,118)" stroke-width="1" opacity="0.996078431372549" d="M 57.5 56 L 50.5 64 L 57.5 56 Z " /><path fill="rgb(93,187,111)" stroke="rgb(93,187,111)" stroke-width="1" opacity="0.996078431372549" d="M 19.5 51 L 20.5 53 L 19.5 51 Z " /><path fill="rgb(93,187,111)" stroke="rgb(93,187,111)" stroke-width="1" opacity="0.996078431372549" d="M 114.5 52 L 116 57.5 L 114 57.5 L 115 61.5 L 113 61.5 L 114 64.5 L 112 64.5 Q 112.8 66.8 110.5 66 L 111.5 69 L 107.5 67 L 105.5 68 L 103.5 67 L 101.5 67 L 99.5 68 L 95.5 67 L 91.5 67 L 86.5 68 L 83.5 67 L 78.5 68 L 74.5 67 L 72.5 67 L 68.5 68 L 67.5 67 L 64.5 70 L 62.5 71 L 65.5 67 L 68 65.5 L 67.5 64 L 69 64.5 L 68 60.5 L 69 58.5 Q 67 54.8 65 56.5 L 65.5 55 L 62.5 56 L 63 54.5 Q 62.1 51.5 66.5 53 L 67.5 54 L 83.5 54 L 84.5 55 L 87 53.5 L 87.5 55 L 89.5 54 L 91.5 54 L 95.5 53 L 96.5 54 L 107.5 54 L 111.5 54 Q 115 55 114.5 52 Z " /><path fill="rgb(93,187,111)" stroke="rgb(93,187,111)" stroke-width="1" opacity="0.996078431372549" d="M 18.5 53 L 21.5 54 L 24.5 53 L 26.5 54 L 30.5 54 L 33.5 53 Q 34.8 55.3 39.5 54 L 41.5 54 L 45.5 53 Q 47 55.5 52.5 54 L 54.5 54 L 61.5 53 L 61.5 54 L 56 57.5 L 57 58.5 L 52.5 63 L 51.5 62 L 48.5 65 L 47 65.5 L 47.5 67 L 46 66.5 L 44.5 69 L 44.5 67 L 39.5 68 L 37.5 68 L 33.5 67 L 30.5 68 L 27.5 67 L 25.5 67 L 22.5 68 L 18.5 66 L 17.5 67 L 14.5 68 L 12 67.5 L 11 64.5 L 13 64.5 L 12 61.5 L 14 61.5 L 13 59.5 L 15 59 L 14 56.5 L 17 55.5 L 18.5 53 Z " /><path fill="rgb(93,187,111)" stroke="rgb(93,187,111)" stroke-width="1" opacity="0.996078431372549" d="M 11.5 69 L 10.5 71 L 11.5 69 Z " /><path fill="rgb(93,187,111)" stroke="rgb(93,187,111)" stroke-width="1" opacity="0.996078431372549" d="M 42.5 69 L 41.5 71 L 42.5 69 Z " /><path fill="rgb(93,187,111)" stroke="rgb(93,187,111)" stroke-width="1" opacity="0.996078431372549" d="M 39.5 70 L 40 71.5 L 38 72.5 L 39.5 70 Z " /><path fill="rgb(93,187,111)" stroke="rgb(93,187,111)" stroke-width="1" opacity="0.996078431372549" d="M 10.5 75 L 11 85.5 L 10 85.5 L 10.5 75 Z " /><path fill="rgb(93,187,111)" stroke="rgb(93,187,111)" stroke-width="1" opacity="0.996078431372549" d="M 31 75 L 34 75.5 L 31.5 77 L 31 75 Z " /><path fill="rgb(93,187,111)" stroke="rgb(93,187,111)" stroke-width="1" opacity="0.996078431372549" d="M 28.5 77 L 27.5 79 L 28.5 77 Z " /><path fill="rgb(93,187,111)" stroke="rgb(93,187,111)" stroke-width="1" opacity="0.996078431372549" d="M 105.5 78 L 106 79.5 L 104 80.5 L 105.5 78 Z " /><path fill="rgb(93,187,111)" stroke="rgb(93,187,111)" stroke-width="1" opacity="0.996078431372549" d="M 25.5 79 L 24.5 81 L 25.5 79 Z " /><path fill="rgb(93,187,111)" stroke="rgb(93,187,111)" stroke-width="1" opacity="0.996078431372549" d="M 22.5 81 L 20.5 84 L 22.5 81 Z " /><path fill="rgb(93,187,111)" stroke="rgb(93,187,111)" stroke-width="1" opacity="0.996078431372549" d="M 46.5 82 L 45.5 84 L 46.5 82 Z " /><path fill="rgb(93,187,111)" stroke="rgb(93,187,111)" stroke-width="1" opacity="0.996078431372549" d="M 103.5 82 L 102.5 84 L 103.5 82 Z " /><path fill="rgb(93,187,111)" stroke="rgb(93,187,111)" stroke-width="1" opacity="0.996078431372549" d="M 17.5 85 L 13.5 90 L 17.5 85 Z " /><path fill="rgb(93,187,111)" stroke="rgb(93,187,111)" stroke-width="1" opacity="0.996078431372549" d="M 41.5 85 L 40.5 87 L 41.5 85 Z " /><path fill="rgb(93,187,111)" stroke="rgb(93,187,111)" stroke-width="1" opacity="0.996078431372549" d="M 100.5 86 L 99.5 88 L 100.5 86 Z " /><path fill="rgb(96,194,114)" stroke="rgb(96,194,114)" stroke-width="1" opacity="0.996078431372549" d="M 37.5 36 L 44.5 38 L 50.5 36 L 53.5 37 L 55 36.5 L 54.5 38 L 62.5 36 L 66.5 37 L 68.5 37 L 73.5 38 L 77.5 37 L 79 37.5 L 79.5 36 L 83.5 38 L 86.5 37 L 88.5 36 L 91.5 38 Q 93 35.5 98.5 37 L 100.5 37 L 108.5 38 L 110.5 38 L 115.5 37 L 117 38.5 L 118 48.5 L 116 48.5 L 117 52.5 L 115 53.5 L 114.5 52 L 114 54 L 110.5 53 L 107.5 54 L 96.5 54 L 94.5 53 L 90.5 55 L 88.5 54 L 87 54.5 L 86.5 53 Q 85 56.5 83.5 54 Q 70.5 55.3 63 53 L 64 55.5 L 61.5 56 L 60 56 L 59.5 54 L 54.5 54 L 52.5 54 Q 47 52.5 45.5 55 L 45.5 53 L 41.5 54 L 39.5 54 Q 34.8 55.3 33.5 53 L 30.5 54 L 26.5 54 L 22.5 53 L 18.5 55 L 16 53.5 L 18 52.5 Q 15.8 51.3 18.5 50 L 20 49.5 Q 17.8 48.2 20.5 47 L 22 47.5 L 25 43.5 Q 22.7 42.3 25.5 41 L 26.5 42 L 29.5 39 L 32.5 37 L 34.5 38 L 37.5 36 Z " /><path fill="rgb(96,194,114)" stroke="rgb(96,194,114)" stroke-width="1" opacity="0.996078431372549" d="M 58.5 55 L 59 56.5 L 57 57.5 L 58.5 55 Z " /><path fill="rgb(96,194,114)" stroke="rgb(96,194,114)" stroke-width="1" opacity="0.996078431372549" d="M 65.5 55 L 68.5 59 L 66 57.5 L 65.5 55 Z " /><path fill="rgb(96,194,114)" stroke="rgb(96,194,114)" stroke-width="1" opacity="0.996078431372549" d="M 115.5 56 L 114.5 58 L 115.5 56 Z " /><path fill="rgb(96,194,114)" stroke="rgb(96,194,114)" stroke-width="1" opacity="0.996078431372549" d="M 68.5 63 L 69 64.5 L 66 66.5 L 68.5 63 Z " /><path fill="rgb(96,194,114)" stroke="rgb(96,194,114)" stroke-width="1" opacity="0.996078431372549" d="M 49.5 64 L 48.5 66 L 47 65.5 L 49.5 64 Z " /><path fill="rgb(96,194,114)" stroke="rgb(96,194,114)" stroke-width="1" opacity="0.996078431372549" d="M 112.5 64 L 113 65.5 L 111.5 68 L 111 66.5 L 112.5 64 Z " /><path fill="rgb(96,194,114)" stroke="rgb(96,194,114)" stroke-width="1" opacity="0.996078431372549" d="M 11.5 66 L 12 68.5 L 11 68.5 L 11.5 66 Z " /><path fill="rgb(96,194,114)" stroke="rgb(96,194,114)" stroke-width="1" opacity="0.996078431372549" d="M 44.5 67 L 43.5 69 L 44.5 67 Z " /><path fill="rgb(96,194,114)" stroke="rgb(96,194,114)" stroke-width="1" opacity="0.996078431372549" d="M 41.5 69 L 40.5 71 L 41.5 69 Z " /><path fill="rgb(96,194,114)" stroke="rgb(96,194,114)" stroke-width="1" opacity="0.996078431372549" d="M 10.5 71 L 11 74.5 L 10 74.5 L 10.5 71 Z " /><path fill="rgb(96,194,114)" stroke="rgb(96,194,114)" stroke-width="1" opacity="0.996078431372549" d="M 38.5 71 L 37.5 73 L 38.5 71 Z " /><path fill="rgb(96,194,114)" stroke="rgb(96,194,114)" stroke-width="1" opacity="0.996078431372549" d="M 61.5 71 L 58.5 75 L 61.5 71 Z " /><path fill="rgb(96,194,114)" stroke="rgb(96,194,114)" stroke-width="1" opacity="0.996078431372549" d="M 55.5 76 L 54.5 78 L 55.5 76 Z " /><path fill="rgb(89,189,112)" stroke="rgb(89,189,112)" stroke-width="1" opacity="0.34901960784313724" d="M 101.5 1 L 104 1.5 L 101.5 4 L 99 3.5 L 101.5 1 Z " /><path fill="rgb(89,189,112)" stroke="rgb(89,189,112)" stroke-width="1" opacity="0.34901960784313724" d="M 113.5 1 L 115 3.5 L 114 3.5 L 113.5 1 Z " /><path fill="rgb(89,189,112)" stroke="rgb(89,189,112)" stroke-width="1" opacity="0.34901960784313724" d="M 116.5 3 L 117 4.5 L 115.5 7 L 115 5.5 L 116.5 3 Z " /><path fill="rgb(89,189,112)" stroke="rgb(89,189,112)" stroke-width="1" opacity="0.34901960784313724" d="M 97.5 4 L 98 6.5 L 96.5 8 L 96 5.5 L 97.5 4 Z " /><path fill="rgb(89,189,112)" stroke="rgb(89,189,112)" stroke-width="1" opacity="0.34901960784313724" d="M 94.5 6 L 94.5 9 Q 91.5 7.5 94.5 6 Z " /><path fill="rgb(89,189,112)" stroke="rgb(89,189,112)" stroke-width="1" opacity="0.34901960784313724" d="M 91.5 8 Q 94.5 9.5 91.5 11 L 89.5 12 L 89.5 9 L 91.5 10 L 91.5 8 Z " /><path fill="rgb(89,189,112)" stroke="rgb(89,189,112)" stroke-width="1" opacity="0.34901960784313724" d="M 116.5 9 L 117 11.5 L 116 11.5 L 116.5 9 Z " /><path fill="rgb(89,189,112)" stroke="rgb(89,189,112)" stroke-width="1" opacity="0.34901960784313724" d="M 118.5 10 L 119 13.5 L 118 13.5 L 118.5 10 Z " /><path fill="rgb(89,189,112)" stroke="rgb(89,189,112)" stroke-width="1" opacity="0.34901960784313724" d="M 84.5 11 L 88 12.5 L 86.5 13 L 84.5 11 Z " /><path fill="rgb(89,189,112)" stroke="rgb(89,189,112)" stroke-width="1" opacity="0.34901960784313724" d="M 79.5 13 L 82 14.5 L 80.5 14 L 79.5 13 Z " /><path fill="rgb(89,189,112)" stroke="rgb(89,189,112)" stroke-width="1" opacity="0.34901960784313724" d="M 117.5 15 L 118 17.5 L 117 17.5 L 117.5 15 Z " /><path fill="rgb(89,189,112)" stroke="rgb(89,189,112)" stroke-width="1" opacity="0.34901960784313724" d="M 58.5 19 L 61 20.5 L 59.5 21 L 58.5 19 Z " /><path fill="rgb(89,189,112)" stroke="rgb(89,189,112)" stroke-width="1" opacity="0.34901960784313724" d="M 55.5 20 L 58 21.5 L 56.5 22 L 55.5 20 Z " /><path fill="rgb(89,189,112)" stroke="rgb(89,189,112)" stroke-width="1" opacity="0.34901960784313724" d="M 118.5 20 L 119 25.5 L 118 25.5 L 118.5 20 Z " /><path fill="rgb(89,189,112)" stroke="rgb(89,189,112)" stroke-width="1" opacity="0.34901960784313724" d="M 51.5 21 L 55 22.5 L 53.5 23 L 51.5 21 Z " /><path fill="rgb(89,189,112)" stroke="rgb(89,189,112)" stroke-width="1" opacity="0.34901960784313724" d="M 47.5 23 L 50 24.5 L 43.5 28 L 43.5 25 L 45.5 26 L 45.5 24 L 47.5 25 L 47.5 23 Z " /><path fill="rgb(89,189,112)" stroke="rgb(89,189,112)" stroke-width="1" opacity="0.34901960784313724" d="M 120.5 24 L 121 26.5 L 120 26.5 L 120.5 24 Z " /><path fill="rgb(89,189,112)" stroke="rgb(89,189,112)" stroke-width="1" opacity="0.34901960784313724" d="M 39.5 27 L 42 28.5 L 40.5 28 L 39 28.5 Q 41.3 29.8 38.5 31 L 38 28.5 L 39.5 27 Z " /><path fill="rgb(89,189,112)" stroke="rgb(89,189,112)" stroke-width="1" opacity="0.34901960784313724" d="M 36.5 29 L 37 31.5 L 35.5 33 Q 32 31 36.5 29 Z " /><path fill="rgb(89,189,112)" stroke="rgb(89,189,112)" stroke-width="1" opacity="0.34901960784313724" d="M 31.5 33 Q 35 35 30.5 37 L 30 34.5 L 31.5 33 Z " /><path fill="rgb(89,189,112)" stroke="rgb(89,189,112)" stroke-width="1" opacity="0.34901960784313724" d="M 118.5 42 L 119 46.5 L 118 46.5 L 118.5 42 Z " /><path fill="rgb(89,189,112)" stroke="rgb(89,189,112)" stroke-width="1" opacity="0.34901960784313724" d="M 120.5 42 L 121 44.5 L 120 44.5 L 120.5 42 Z " /><path fill="rgb(89,189,112)" stroke="rgb(89,189,112)" stroke-width="1" opacity="0.34901960784313724" d="M 22.5 44 L 19.5 48 L 19.5 45 Q 21 47.5 22.5 44 Z " /><path fill="rgb(89,189,112)" stroke="rgb(89,189,112)" stroke-width="1" opacity="0.34901960784313724" d="M 18.5 49 L 17.5 51 L 18.5 49 Z " /><path fill="rgb(89,189,112)" stroke="rgb(89,189,112)" stroke-width="1" opacity="0.34901960784313724" d="M 117.5 49 L 118 53.5 L 115.5 60 L 115 58.5 L 117.5 49 Z " /><path fill="rgb(89,189,112)" stroke="rgb(89,189,112)" stroke-width="1" opacity="0.34901960784313724" d="M 15.5 50 L 17 52.5 L 15 51.5 L 15.5 50 Z " /><path fill="rgb(89,189,112)" stroke="rgb(89,189,112)" stroke-width="1" opacity="0.34901960784313724" d="M 15.5 54 L 14.5 56 L 15.5 54 Z " /><path fill="rgb(89,189,112)" stroke="rgb(89,189,112)" stroke-width="1" opacity="0.34901960784313724" d="M 12.5 56 L 14 58.5 L 13 58.5 L 12.5 56 Z " /><path fill="rgb(89,189,112)" stroke="rgb(89,189,112)" stroke-width="1" opacity="0.34901960784313724" d="M 63.5 56 L 66 57.5 L 64.5 57 L 63.5 56 Z " /><path fill="rgb(89,189,112)" stroke="rgb(89,189,112)" stroke-width="1" opacity="0.34901960784313724" d="M 59.5 58 L 56.5 62 L 59.5 58 Z " /><path fill="rgb(89,189,112)" stroke="rgb(89,189,112)" stroke-width="1" opacity="0.34901960784313724" d="M 12.5 60 L 12 61.5 L 11.5 64 L 11 61.5 L 12.5 60 Z " /><path fill="rgb(89,189,112)" stroke="rgb(89,189,112)" stroke-width="1" opacity="0.34901960784313724" d="M 51.5 63 L 50.5 67 Q 47 65 51.5 63 Z " /><path fill="rgb(89,189,112)" stroke="rgb(89,189,112)" stroke-width="1" opacity="0.34901960784313724" d="M 64.5 65 L 67 65.5 L 59 72.5 Q 63.3 70.3 61.5 68 Q 62.8 70.3 64 67.5 Q 61.8 66.3 64.5 65 Z " /><path fill="rgb(89,189,112)" stroke="rgb(89,189,112)" stroke-width="1" opacity="0.34901960784313724" d="M 8.5 66 L 9.5 68 L 10.5 66 L 11 67.5 Q 9.5 70.5 8 67.5 L 8.5 66 Z " /><path fill="rgb(89,189,112)" stroke="rgb(89,189,112)" stroke-width="1" opacity="0.34901960784313724" d="M 46.5 67 L 45.5 69 L 46.5 67 Z " /><path fill="rgb(89,189,112)" stroke="rgb(89,189,112)" stroke-width="1" opacity="0.34901960784313724" d="M 43.5 69 L 42.5 71 L 43.5 69 Z " /><path fill="rgb(89,189,112)" stroke="rgb(89,189,112)" stroke-width="1" opacity="0.34901960784313724" d="M 9.5 70 L 10 73.5 L 9 73.5 L 9.5 70 Z " /><path fill="rgb(89,189,112)" stroke="rgb(89,189,112)" stroke-width="1" opacity="0.34901960784313724" d="M 55.5 75 L 54.5 77 L 55.5 75 Z " /><path fill="rgb(89,189,112)" stroke="rgb(89,189,112)" stroke-width="1" opacity="0.34901960784313724" d="M 52.5 77 L 51.5 79 L 52.5 77 Z " /><path fill="rgb(89,189,112)" stroke="rgb(89,189,112)" stroke-width="1" opacity="0.34901960784313724" d="M 107.5 77 L 108 78.5 L 106 79.5 L 107.5 77 Z " /><path fill="rgb(89,189,112)" stroke="rgb(89,189,112)" stroke-width="1" opacity="0.34901960784313724" d="M 49.5 79 L 48.5 81 L 49.5 79 Z " /><path fill="rgb(89,189,112)" stroke="rgb(89,189,112)" stroke-width="1" opacity="0.34901960784313724" d="M 9.5 83 L 10 86.5 L 9 86.5 L 9.5 83 Z " /><path fill="rgb(89,189,112)" stroke="rgb(89,189,112)" stroke-width="1" opacity="0.34901960784313724" d="M 21.5 83 L 20.5 85 L 21.5 83 Z " /><path fill="rgb(89,189,112)" stroke="rgb(89,189,112)" stroke-width="1" opacity="0.34901960784313724" d="M 15.5 88 L 13.5 91 L 15.5 88 Z " /><path fill="rgb(89,189,112)" stroke="rgb(89,189,112)" stroke-width="1" opacity="0.34901960784313724" d="M 30.5 91 L 29.5 93 L 30.5 91 Z " /><path fill="rgb(89,189,112)" stroke="rgb(89,189,112)" stroke-width="1" opacity="0.34901960784313724" d="M 26.5 94 L 20.5 101 L 26.5 94 Z " /><path fill="rgb(89,189,112)" stroke="rgb(89,189,112)" stroke-width="1" opacity="0.34901960784313724" d="M 90.5 97 L 89.5 99 L 90.5 97 Z " /><path fill="rgb(91,180,107)" stroke="rgb(91,180,107)" stroke-width="1" opacity="0.996078431372549" d="M 18.5 66 L 22.5 68 L 25.5 67 L 28.5 68 L 31.5 67 L 34.5 68 L 38.5 67 L 40.5 67 L 44 67.5 L 35 73.5 L 34.5 75 L 32.5 75 L 30 76.5 L 28.5 79 L 27 78.5 L 25.5 81 L 25.5 79 L 23 79.5 L 24 81.5 L 22 82.5 L 23 80.5 L 21.5 81 L 17.5 80 Q 16.3 82.3 11.5 81 L 11 78.5 Q 12.3 71.7 10 68.5 L 11 68.5 L 11.5 70 L 13.5 67 L 15.5 68 L 18.5 66 Z " /><path fill="rgb(91,180,107)" stroke="rgb(91,180,107)" stroke-width="1" opacity="0.996078431372549" d="M 67.5 67 L 69.5 67 L 73.5 68 L 77.5 67 L 79.5 67 L 84.5 68 L 86.5 68 L 91.5 67 L 95.5 67 L 99.5 68 L 101.5 67 L 103.5 67 L 106.5 68 L 108.5 67 L 111 71.5 L 109 71.5 L 107 75.5 L 107.5 77 L 106 77.5 L 106.5 79 L 104.5 78 L 104.5 82 L 102.5 83 L 101.5 80 L 92.5 81 L 90.5 81 Q 88.3 81.8 89 79.5 L 86.5 81 L 85.5 80 L 83.5 81 L 81.5 81 L 79.5 80 L 77.5 81 L 72.5 80 L 70.5 81 L 68.5 81 L 64.5 82 L 62.5 80 L 60.5 82 L 58.5 80 L 55.5 81 L 52 79.5 L 52.5 78 L 53.5 80 L 56.5 76 L 58 75.5 L 57.5 74 L 58.5 75 L 63.5 70 L 67.5 67 Z " /><path fill="rgb(91,180,107)" stroke="rgb(91,180,107)" stroke-width="1" opacity="0.996078431372549" d="M 9.5 74 L 10 78.5 L 9 78.5 L 9.5 74 Z " /><path fill="rgb(91,180,107)" stroke="rgb(91,180,107)" stroke-width="1" opacity="0.996078431372549" d="M 50.5 79 L 49.5 81 L 50.5 79 Z " /><path fill="rgb(91,180,107)" stroke="rgb(91,180,107)" stroke-width="1" opacity="0.996078431372549" d="M 45.5 82 L 44.5 84 L 45.5 82 Z " /><path fill="rgb(91,180,107)" stroke="rgb(91,180,107)" stroke-width="1" opacity="0.996078431372549" d="M 19.5 83 L 20 85 L 18 84.5 L 19.5 83 Z " /><path fill="rgb(91,180,107)" stroke="rgb(91,180,107)" stroke-width="1" opacity="0.996078431372549" d="M 40.5 85 L 39.5 87 L 40.5 85 Z " /><path fill="rgb(91,180,107)" stroke="rgb(91,180,107)" stroke-width="1" opacity="0.996078431372549" d="M 37.5 87 L 38 89 L 35.5 90 L 35 88 L 37.5 87 Z " /><path fill="rgb(91,180,107)" stroke="rgb(91,180,107)" stroke-width="1" opacity="0.996078431372549" d="M 11.5 88 L 13 90.5 L 11 91 L 11.5 88 Z " /><path fill="rgb(91,180,107)" stroke="rgb(91,180,107)" stroke-width="1" opacity="0.996078431372549" d="M 98.5 88 L 98 89.5 Q 98.8 91.8 96.5 91 L 98.5 88 Z " /><path fill="rgb(91,180,107)" stroke="rgb(91,180,107)" stroke-width="1" opacity="0.996078431372549" d="M 92.5 94 L 89.5 98 L 92.5 94 Z " /><path fill="rgb(91,180,107)" stroke="rgb(91,180,107)" stroke-width="1" opacity="0.996078431372549" d="M 25.5 96 L 22.5 100 L 25.5 96 Z " /><path fill="rgb(91,180,107)" stroke="rgb(91,180,107)" stroke-width="1" opacity="0.996078431372549" d="M 19.5 103 L 18.5 105 L 19.5 103 Z " /><path fill="rgb(89,174,104)" stroke="rgb(89,174,104)" stroke-width="1" opacity="0.996078431372549" d="M 9.5 79 L 10 82.5 L 9 82.5 L 9.5 79 Z " /><path fill="rgb(89,174,104)" stroke="rgb(89,174,104)" stroke-width="1" opacity="0.996078431372549" d="M 23.5 79 L 25 79.5 L 18 84.5 Q 20.3 85.8 17.5 87 L 16.5 86 L 12 89.5 L 11.5 88 L 10.5 90 L 10 87.5 L 11 81 L 18.5 80 L 21.5 81 L 23.5 79 Z " /><path fill="rgb(89,174,104)" stroke="rgb(89,174,104)" stroke-width="1" opacity="0.996078431372549" d="M 53.5 79 L 53.5 81 L 56.5 80 L 62.5 80 L 64.5 82 L 65.5 81 L 69.5 80 L 71.5 81 L 76.5 80 L 78.5 81 L 80.5 81 L 82.5 80 L 84.5 80 L 86.5 81 L 89 79.5 Q 88.3 81.8 90.5 81 L 92.5 81 L 101.5 80 Q 104.3 81.3 102 82.5 L 102.5 84 L 104 83.5 L 101 84.5 L 100 86.5 Q 102.8 88.3 98.5 90 Q 97.2 87.8 96 90.5 L 97 91.5 L 91.5 97 L 93 94.5 L 92.5 93 L 89.5 95 L 82.5 96 L 80.5 96 L 73.5 94 L 70 96 L 69.5 94 L 67 95.5 L 66.5 94 L 65.5 96 Q 64 92.5 62.5 95 L 60.5 94 L 58.5 95 L 57 94.5 L 57 96 L 52 96 L 51.5 94 L 46.5 96 L 44.5 95 L 42.5 95 L 38.5 94 L 36.5 95 L 34.5 95 L 31.5 96 L 30 93.5 L 32.5 90 L 34 90.5 L 34.5 89 L 36.5 89 L 53.5 79 Z " /><path fill="rgb(89,174,104)" stroke="rgb(89,174,104)" stroke-width="1" opacity="0.996078431372549" d="M 12.5 91 L 11.5 93 L 12.5 91 Z " /><path fill="rgb(89,174,104)" stroke="rgb(89,174,104)" stroke-width="1" opacity="0.996078431372549" d="M 28.5 93 L 28 94.5 Q 28.8 96.8 26.5 96 L 28.5 93 Z " /><path fill="rgb(89,174,104)" stroke="rgb(89,174,104)" stroke-width="1" opacity="0.996078431372549" d="M 87.5 96 L 90 96.5 L 87.5 100 L 87 98.5 L 87.5 96 Z " /><path fill="rgb(89,174,104)" stroke="rgb(89,174,104)" stroke-width="1" opacity="0.996078431372549" d="M 21.5 100 L 21 101.5 L 20.5 103 L 20 101.5 L 21.5 100 Z " /><path fill="rgb(89,174,104)" stroke="rgb(89,174,104)" stroke-width="1" opacity="0.996078431372549" d="M 84 100 L 86 100.5 L 84 101.5 L 84 100 Z " /><path fill="rgb(89,174,104)" stroke="rgb(89,174,104)" stroke-width="1" opacity="0.996078431372549" d="M 82.5 102 L 81.5 104 L 75.5 106 L 75.5 105 L 82.5 102 Z " /><path fill="rgb(89,174,104)" stroke="rgb(89,174,104)" stroke-width="1" opacity="0.996078431372549" d="M 17.5 106 L 17 107.5 L 14.5 113 L 14 111.5 L 17.5 106 Z " /><path fill="rgb(89,174,104)" stroke="rgb(89,174,104)" stroke-width="1" opacity="0.996078431372549" d="M 48.5 113 L 51 113.5 L 48.5 114 L 48.5 113 Z " /><path fill="rgb(89,174,104)" stroke="rgb(89,174,104)" stroke-width="1" opacity="0.996078431372549" d="M 40.5 114 L 44 114.5 L 40.5 115 L 40.5 114 Z " /><path fill="rgb(92,157,100)" stroke="rgb(92,157,100)" stroke-width="1" opacity="0.19215686274509805" d="M 41.5 26 L 42.5 28 L 41.5 26 Z " /><path fill="rgb(92,157,100)" stroke="rgb(92,157,100)" stroke-width="1" opacity="0.19215686274509805" d="M 32.5 32 L 33.5 34 L 32.5 32 Z " /><path fill="rgb(92,157,100)" stroke="rgb(92,157,100)" stroke-width="1" opacity="0.19215686274509805" d="M 29.5 35 L 28.5 37 L 29.5 35 Z " /><path fill="rgb(92,157,100)" stroke="rgb(92,157,100)" stroke-width="1" opacity="0.19215686274509805" d="M 26.5 37 L 28 38.5 L 23.5 43 L 21.5 44 L 22 42.5 L 26.5 37 Z " /><path fill="rgb(92,157,100)" stroke="rgb(92,157,100)" stroke-width="1" opacity="0.19215686274509805" d="M 18.5 46 L 18 47.5 L 16.5 50 L 17 48.5 L 18.5 46 Z " /><path fill="rgb(92,157,100)" stroke="rgb(92,157,100)" stroke-width="1" opacity="0.19215686274509805" d="M 14.5 52 L 15.5 54 L 14 53.5 L 12.5 56 L 13 54.5 L 14.5 52 Z " /><path fill="rgb(92,157,100)" stroke="rgb(92,157,100)" stroke-width="1" opacity="0.19215686274509805" d="M 11.5 57 L 13 59.5 L 10 59.5 L 11.5 57 Z " /><path fill="rgb(92,157,100)" stroke="rgb(92,157,100)" stroke-width="1" opacity="0.19215686274509805" d="M 58.5 57 L 54.5 64 L 52 63.5 L 58.5 57 Z " /><path fill="rgb(92,157,100)" stroke="rgb(92,157,100)" stroke-width="1" opacity="0.19215686274509805" d="M 63.5 58 L 65.5 59 L 67 58.5 Q 64.5 60 68 61.5 L 67.5 63 L 67 61 L 65 61 Q 66.1 58.3 63.5 59 L 63.5 58 Z " /><path fill="rgb(92,157,100)" stroke="rgb(92,157,100)" stroke-width="1" opacity="0.19215686274509805" d="M 117.5 58 L 118 60.5 L 117 60.5 L 117.5 58 Z " /><path fill="rgb(92,157,100)" stroke="rgb(92,157,100)" stroke-width="1" opacity="0.19215686274509805" d="M 48.5 66 L 49.5 68 L 47 67.5 L 48.5 66 Z " /><path fill="rgb(92,157,100)" stroke="rgb(92,157,100)" stroke-width="1" opacity="0.19215686274509805" d="M 113.5 66 L 115 68.5 L 113.5 71 L 112 68.5 L 114 68.5 L 113.5 66 Z " /><path fill="rgb(92,157,100)" stroke="rgb(92,157,100)" stroke-width="1" opacity="0.19215686274509805" d="M 44.5 69 L 47 69.5 Q 44.9 72.8 44.5 69 Z " /><path fill="rgb(92,157,100)" stroke="rgb(92,157,100)" stroke-width="1" opacity="0.19215686274509805" d="M 41.5 71 L 44 71.5 Q 41.9 74.8 41.5 71 Z " /><path fill="rgb(92,157,100)" stroke="rgb(92,157,100)" stroke-width="1" opacity="0.19215686274509805" d="M 57.5 71 Q 61 73 56.5 75 L 56 72.5 L 57.5 71 Z " /><path fill="rgb(92,157,100)" stroke="rgb(92,157,100)" stroke-width="1" opacity="0.19215686274509805" d="M 39.5 72 Q 42.5 73.5 39.5 75 L 37.5 76 L 36.5 74 L 38.5 74 L 40 73.5 L 39.5 72 Z " /><path fill="rgb(92,157,100)" stroke="rgb(92,157,100)" stroke-width="1" opacity="0.19215686274509805" d="M 109.5 74 L 112 74.5 L 104.5 85 L 103 85.5 L 103 87.5 L 99.5 92 Q 98.3 89.8 97 92.5 L 98 93.5 L 92.5 99 L 91 97.5 L 100.5 88 L 102 88.5 L 103 86.5 Q 100.8 85.2 103.5 84 L 106 82.5 L 105.5 81 L 107 81.5 L 109 77.5 L 108.5 76 L 110 76.5 L 109.5 74 Z " /><path fill="rgb(92,157,100)" stroke="rgb(92,157,100)" stroke-width="1" opacity="0.19215686274509805" d="M 34.5 75 Q 37.5 76.5 34.5 78 L 32.5 79 L 31.5 77 L 33.5 77 L 35 76.5 L 34.5 75 Z " /><path fill="rgb(92,157,100)" stroke="rgb(92,157,100)" stroke-width="1" opacity="0.19215686274509805" d="M 52.5 75 L 53.5 77 L 51 76.5 L 52.5 75 Z " /><path fill="rgb(92,157,100)" stroke="rgb(92,157,100)" stroke-width="1" opacity="0.19215686274509805" d="M 49.5 77 L 50.5 79 L 48 78.5 L 49.5 77 Z " /><path fill="rgb(92,157,100)" stroke="rgb(92,157,100)" stroke-width="1" opacity="0.19215686274509805" d="M 29.5 78 L 30.5 80 L 29.5 78 Z " /><path fill="rgb(92,157,100)" stroke="rgb(92,157,100)" stroke-width="1" opacity="0.19215686274509805" d="M 46.5 79 L 47.5 81 L 45 80.5 L 46.5 79 Z " /><path fill="rgb(92,157,100)" stroke="rgb(92,157,100)" stroke-width="1" opacity="0.19215686274509805" d="M 43.5 81 L 44.5 83 L 43.5 81 Z " /><path fill="rgb(92,157,100)" stroke="rgb(92,157,100)" stroke-width="1" opacity="0.19215686274509805" d="M 23.5 82 L 25.5 82 L 27 82.5 L 23.5 85 Q 20.5 83.5 23.5 82 Z " /><path fill="rgb(92,157,100)" stroke="rgb(92,157,100)" stroke-width="1" opacity="0.19215686274509805" d="M 41.5 82 L 42.5 84 L 41.5 82 Z " /><path fill="rgb(92,157,100)" stroke="rgb(92,157,100)" stroke-width="1" opacity="0.19215686274509805" d="M 38.5 84 L 39.5 86 L 38.5 84 Z " /><path fill="rgb(92,157,100)" stroke="rgb(92,157,100)" stroke-width="1" opacity="0.19215686274509805" d="M 19.5 85 L 19.5 88 L 18.5 87 L 16 88.5 L 19.5 85 Z " /><path fill="rgb(92,157,100)" stroke="rgb(92,157,100)" stroke-width="1" opacity="0.19215686274509805" d="M 36.5 85 L 37.5 87 L 35.5 87 L 34 87.5 L 34.5 89 Q 31.5 87.5 34.5 86 L 36.5 85 Z " /><path fill="rgb(92,157,100)" stroke="rgb(92,157,100)" stroke-width="1" opacity="0.19215686274509805" d="M 9.5 87 L 10 88.5 L 8 89.5 L 9.5 87 Z " /><path fill="rgb(92,157,100)" stroke="rgb(92,157,100)" stroke-width="1" opacity="0.19215686274509805" d="M 31.5 88 L 31.5 91 L 29 90.5 L 31.5 88 Z " /><path fill="rgb(92,157,100)" stroke="rgb(92,157,100)" stroke-width="1" opacity="0.19215686274509805" d="M 15.5 90 L 14.5 92 L 15.5 90 Z " /><path fill="rgb(92,157,100)" stroke="rgb(92,157,100)" stroke-width="1" opacity="0.19215686274509805" d="M 10.5 92 L 13 92.5 L 10 94 L 10.5 92 Z " /><path fill="rgb(92,157,100)" stroke="rgb(92,157,100)" stroke-width="1" opacity="0.19215686274509805" d="M 26.5 92 L 29 92.5 Q 26.9 95.8 26.5 92 Z " /><path fill="rgb(92,157,100)" stroke="rgb(92,157,100)" stroke-width="1" opacity="0.19215686274509805" d="M 24.5 94 L 21.5 98 L 24.5 94 Z " /><path fill="rgb(92,157,100)" stroke="rgb(92,157,100)" stroke-width="1" opacity="0.19215686274509805" d="M 88.5 99 L 91 99.5 L 89.5 101 L 87 100.5 L 88.5 99 Z " /><path fill="rgb(92,157,100)" stroke="rgb(92,157,100)" stroke-width="1" opacity="0.19215686274509805" d="M 18.5 100 Q 21.5 101.5 18.5 103 L 16 104.5 L 16.5 106 Q 13.3 104.3 17 102.5 L 18.5 100 Z " /><path fill="rgb(92,157,100)" stroke="rgb(92,157,100)" stroke-width="1" opacity="0.19215686274509805" d="M 85.5 101 Q 88.5 102.5 85.5 104 Q 82.5 102.5 85.5 101 Z " /><path fill="rgb(92,157,100)" stroke="rgb(92,157,100)" stroke-width="1" opacity="0.19215686274509805" d="M 82.5 103 Q 85.5 104.5 82.5 106 L 80.5 107 L 80.5 104 L 82.5 105 L 82.5 103 Z " /><path fill="rgb(92,157,100)" stroke="rgb(92,157,100)" stroke-width="1" opacity="0.19215686274509805" d="M 13.5 107 L 16 107.5 L 13.5 112 L 12 109.5 L 13.5 107 Z " /><path fill="rgb(92,157,100)" stroke="rgb(92,157,100)" stroke-width="1" opacity="0.19215686274509805" d="M 69.5 109 L 73 110.5 L 71.5 111 L 69.5 109 Z " /><path fill="rgb(92,157,100)" stroke="rgb(92,157,100)" stroke-width="1" opacity="0.19215686274509805" d="M 67.5 110 L 70 111.5 L 68.5 112 L 67.5 110 Z " /><path fill="rgb(92,157,100)" stroke="rgb(92,157,100)" stroke-width="1" opacity="0.19215686274509805" d="M 11.5 111 L 13 113.5 L 11 113.5 L 12 117.5 L 10.5 121 L 9 116.5 L 10 116.5 L 10.5 118 L 11 115.5 L 10 113.5 L 11.5 111 Z " /><path fill="rgb(92,157,100)" stroke="rgb(92,157,100)" stroke-width="1" opacity="0.19215686274509805" d="M 64.5 111 L 67 112.5 L 65.5 113 L 64.5 111 Z " /><path fill="rgb(92,157,100)" stroke="rgb(92,157,100)" stroke-width="1" opacity="0.19215686274509805" d="M 60.5 112 L 64 113.5 L 62.5 114 L 60.5 112 Z " /><path fill="rgb(92,157,100)" stroke="rgb(92,157,100)" stroke-width="1" opacity="0.19215686274509805" d="M 56.5 113 L 61 114.5 L 58.5 115 L 56.5 113 Z " /><path fill="rgb(92,157,100)" stroke="rgb(92,157,100)" stroke-width="1" opacity="0.19215686274509805" d="M 44.5 115 L 47 115.5 L 44.5 116 L 44.5 115 Z " /><path fill="rgb(92,157,100)" stroke="rgb(92,157,100)" stroke-width="1" opacity="0.19215686274509805" d="M 25.5 116 L 39 116.5 L 25 117.5 L 36 118.5 L 26 119 L 25.5 121 L 24.5 119 L 24 121.5 L 25 123.5 L 24 123.5 L 23 119.5 L 25.5 116 Z " /><path fill="rgb(92,157,100)" stroke="rgb(92,157,100)" stroke-width="1" opacity="0.19215686274509805" d="M 48.5 116 L 52 116.5 L 48.5 117 L 48.5 116 Z " /><path fill="rgb(92,157,100)" stroke="rgb(92,157,100)" stroke-width="1" opacity="0.19215686274509805" d="M 42.5 117 L 46 117.5 L 42.5 118 L 42.5 117 Z " /><path fill="rgb(92,157,100)" stroke="rgb(92,157,100)" stroke-width="1" opacity="0.19215686274509805" d="M 8.5 119 L 9 122.5 L 8 122.5 L 8.5 119 Z " /><path fill="rgb(92,157,100)" stroke="rgb(92,157,100)" stroke-width="1" opacity="0.19215686274509805" d="M 10.5 123 L 12 127 L 8 124.5 L 10 124.5 L 10.5 123 Z " /><path fill="rgb(92,157,100)" stroke="rgb(92,157,100)" stroke-width="1" opacity="0.19215686274509805" d="M 22.5 123 L 24 125.5 L 21.5 128 L 19 127.5 L 22.5 123 Z " /><path fill="rgb(86,165,100)" stroke="rgb(86,165,100)" stroke-width="1" opacity="0.996078431372549" d="M 32.5 92 L 31.5 94 L 32.5 92 Z " /><path fill="rgb(86,165,100)" stroke="rgb(86,165,100)" stroke-width="1" opacity="0.996078431372549" d="M 92.5 93 L 90.5 96 L 77 104.5 L 77.5 106 L 75.5 105 L 75.5 107 L 72.5 108 L 71 107.5 L 70.5 109 L 68.5 108 L 68.5 110 L 65.5 109 L 65.5 111 L 62.5 110 L 62.5 112 L 58.5 111 L 58.5 113 L 54.5 112 L 54.5 114 L 48.5 113 L 48.5 115 L 40.5 114 L 40.5 115 L 42 115.5 L 25.5 116 L 24 117.5 Q 24.8 119.8 22.5 119 L 23 120.5 Q 22.6 126.1 18.5 128 Q 13.8 128.8 12 126.5 L 12.5 125 Q 10.3 125.8 11 123.5 L 10 121.5 L 11 118 L 13 117.5 L 12 115 L 14 114.5 L 13 112.5 L 15 112.5 L 14 110.5 L 16 110.5 L 15 108.5 L 17 108.5 L 16 106.5 L 19 104.5 Q 16.8 103.3 19.5 102 L 21 102.5 L 26.5 96 L 29.5 94 L 32.5 96 L 35.5 94 L 37.5 95 L 39.5 95 L 43.5 96 L 45.5 95 L 47.5 96 L 51.5 94 L 52 96 L 57 96 L 57 94.5 L 58.5 95 L 60.5 94 L 62.5 95 L 63.5 94 L 66 95.5 L 66.5 94 L 67.5 96 L 70 94.5 Q 69.3 96.8 71.5 96 L 74.5 94 L 76.5 95 L 78 94.5 L 77.5 96 L 81.5 95 L 83.5 96 Q 84.8 93.7 89.5 95 L 92.5 93 Z " /></svg>
